<?xml version="1.0" encoding="UTF-8" standalone="no"?>
<!-- Generated by graphviz version 2.43.0 (0)
 -->

<!-- Title: %3 Pages: 1 -->

<svg
   xmlns:dc="http://purl.org/dc/elements/1.1/"
   xmlns:cc="http://creativecommons.org/ns#"
   xmlns:rdf="http://www.w3.org/1999/02/22-rdf-syntax-ns#"
   xmlns:svg="http://www.w3.org/2000/svg"
   xmlns="http://www.w3.org/2000/svg"
   xmlns:xlink="http://www.w3.org/1999/xlink"
   xmlns:sodipodi="http://sodipodi.sourceforge.net/DTD/sodipodi-0.dtd"
   xmlns:inkscape="http://www.inkscape.org/namespaces/inkscape"
   width="718pt"
   height="846pt"
   viewBox="0.00 0.00 717.50 846.00"
   version="1.1"
   id="svg1449"
   sodipodi:docname="goop.svg"
   inkscape:export-filename="/home/romilly/git/active/heimer-tools/notebooks/goop.png"
   inkscape:export-xdpi="67.844498"
   inkscape:export-ydpi="67.844498"
   inkscape:version="0.92.5 (2060ec1f9f, 2020-04-08)">
  <metadata
     id="metadata1455">
    <rdf:RDF>
      <cc:Work
         rdf:about="">
        <dc:format>image/svg+xml</dc:format>
        <dc:type
           rdf:resource="http://purl.org/dc/dcmitype/StillImage" />
      </cc:Work>
    </rdf:RDF>
  </metadata>
  <defs
     id="defs1453" />
  <sodipodi:namedview
     pagecolor="#ffffff"
     bordercolor="#666666"
     borderopacity="1"
     objecttolerance="10"
     gridtolerance="10"
     guidetolerance="10"
     inkscape:pageopacity="0"
     inkscape:pageshadow="2"
     inkscape:window-width="1918"
     inkscape:window-height="863"
     id="namedview1451"
     showgrid="false"
     inkscape:zoom="0.56799922"
     inkscape:cx="478.66667"
     inkscape:cy="986.53579"
     inkscape:window-x="0"
     inkscape:window-y="0"
     inkscape:window-maximized="0"
     inkscape:current-layer="svg1449" />
  <g
     id="graph0"
     class="graph"
     transform="scale(1 1) rotate(0) translate(4 842)">
    <title
       id="title1178">%3</title>
    <polygon
       fill="white"
       stroke="transparent"
       points="-4,4 -4,-842 713.5,-842 713.5,4 -4,4"
       id="polygon1180" />
    <!-- 0 -->
    <g
       id="node1"
       class="node">
      <title
         id="title1182">0</title>
      <polygon
         fill="none"
         stroke="black"
         points="590,-838 331,-838 331,-765 590,-765 590,-838"
         id="polygon1184" />
      <text
         text-anchor="start"
         x="437.5"
         y="-819.3"
         font-family="Times,serif"
         font-weight="bold"
         font-size="14.00"
         id="text1186">GOOP</text>
      <text
         text-anchor="start"
         x="343.5"
         y="-797.3"
         font-family="Times,serif"
         font-size="14.00"
         id="text1188">Growing Object-Oriented Python</text>
      <text
         text-anchor="start"
         x="405.5"
         y="-776.3"
         font-family="Times,serif"
         font-size="14.00"
         id="text1190">guided by tests</text>
    </g>
    <!-- 1 -->
    <g
       id="node2"
       class="node">
      <title
         id="title1193">1</title>
      <polygon
         fill="none"
         stroke="black"
         points="367,-639 144,-639 144,-603 367,-603 367,-639"
         id="polygon1195" />
      <text
         text-anchor="start"
         x="156.5"
         y="-617.8"
         font-family="Times,serif"
         font-weight="bold"
         font-size="14.00"
         id="text1197">Test Driven Development</text>
    </g>
    <!-- 0&#45;&gt;1 -->
    <g
       id="edge12"
       class="edge">
      <title
         id="title1200">0-&gt;1</title>
      <path
         fill="none"
         stroke="black"
         d="M418.06,-764.65C404.72,-753.3 389.95,-740.67 376.5,-729 343.96,-700.77 306.9,-667.88 282.46,-646.1"
         id="path1202" />
      <polygon
         fill="black"
         stroke="black"
         points="284.47,-643.21 274.68,-639.16 279.81,-648.43 284.47,-643.21"
         id="polygon1204" />
    </g>
    <!-- 8 -->
    <g
       id="node8"
       class="node">
      <title
         id="title1207">8</title>
      <polygon
         fill="none"
         stroke="black"
         points="535.5,-639 385.5,-639 385.5,-603 535.5,-603 535.5,-639"
         id="polygon1209" />
      <text
         text-anchor="start"
         x="397.5"
         y="-617.8"
         font-family="Times,serif"
         font-weight="bold"
         font-size="14.00"
         id="text1211">Object Oriented</text>
    </g>
    <!-- 0&#45;&gt;8 -->
    <g
       id="edge11"
       class="edge">
      <title
         id="title1214">0-&gt;8</title>
      <path
         fill="none"
         stroke="black"
         d="M460.5,-764.81C460.5,-730.77 460.5,-680.24 460.5,-649.3"
         id="path1216" />
      <polygon
         fill="black"
         stroke="black"
         points="464,-649.24 460.5,-639.24 457,-649.24 464,-649.24"
         id="polygon1218" />
    </g>
    <!-- 21 -->
    <g
       id="node16"
       class="node">
      <title
         id="title1221">21</title>
      <polygon
         fill="none"
         stroke="black"
         points="709.5,-729 553.5,-729 553.5,-513 709.5,-513 709.5,-729"
         id="polygon1223" />
      <text
         text-anchor="start"
         x="608.5"
         y="-710.8"
         font-family="Times,serif"
         font-weight="bold"
         font-size="14.00"
         id="text1225">GOOS</text>
      <image
         sodipodi:absref="/home/romilly/git/active/heimer-tools/notebooks/goos.png"
         xlink:href="goos.png"
         id="image1227"
         y="-700"
         x="565.5"
         preserveAspectRatio="xMinYMin meet"
         height="179px"
         width="132px" />
    </g>
    <!-- 0&#45;&gt;21 -->
    <g
       id="edge10"
       class="edge">
      <title
         id="title1230">0-&gt;21</title>
      <path
         fill="none"
         stroke="black"
         d="M505.45,-764.84C518.49,-753.82 532.45,-741.32 544.5,-729 545.05,-728.44 545.6,-727.87 546.15,-727.31"
         id="path1232" />
      <polygon
         fill="black"
         stroke="black"
         points="548.95,-729.43 553.29,-719.77 543.87,-724.62 548.95,-729.43"
         id="polygon1234" />
    </g>
    <!-- 2 -->
    <g
       id="node3"
       class="node">
      <title
         id="title1237">2</title>
      <polygon
         fill="none"
         stroke="black"
         points="197.5,-477 71.5,-477 71.5,-383 197.5,-383 197.5,-477"
         id="polygon1239" />
      <text
         text-anchor="start"
         x="83.5"
         y="-458.8"
         font-family="Times,serif"
         font-weight="bold"
         font-size="14.00"
         id="text1241">Types of Test</text>
      <text
         text-anchor="start"
         x="118.5"
         y="-436.8"
         font-family="Times,serif"
         font-size="14.00"
         id="text1243">Unit</text>
      <text
         text-anchor="start"
         x="94"
         y="-415.8"
         font-family="Times,serif"
         font-size="14.00"
         id="text1245">Integration</text>
      <text
         text-anchor="start"
         x="94"
         y="-394.8"
         font-family="Times,serif"
         font-size="14.00"
         id="text1247">End to End</text>
    </g>
    <!-- 1&#45;&gt;2 -->
    <g
       id="edge14"
       class="edge">
      <title
         id="title1250">1-&gt;2</title>
      <path
         fill="none"
         stroke="black"
         d="M244.55,-602.89C227.75,-576.65 194.88,-525.32 169.43,-485.55"
         id="path1252" />
      <polygon
         fill="black"
         stroke="black"
         points="172.29,-483.54 163.95,-477 166.4,-487.31 172.29,-483.54"
         id="polygon1254" />
    </g>
    <!-- 4 -->
    <g
       id="node5"
       class="node">
      <title
         id="title1257">4</title>
      <polygon
         fill="none"
         stroke="black"
         points="307,-477 216,-477 216,-383 307,-383 307,-477"
         id="polygon1259" />
      <text
         text-anchor="start"
         x="241.5"
         y="-458.8"
         font-family="Times,serif"
         font-weight="bold"
         font-size="14.00"
         id="text1261">Tools</text>
      <text
         text-anchor="start"
         x="232"
         y="-436.8"
         font-family="Times,serif"
         font-size="14.00"
         id="text1263">Unittest</text>
      <text
         text-anchor="start"
         x="239"
         y="-415.8"
         font-family="Times,serif"
         font-size="14.00"
         id="text1265">Mocks</text>
      <text
         text-anchor="start"
         x="228.5"
         y="-394.8"
         font-family="Times,serif"
         font-size="14.00"
         id="text1267">PyCharm</text>
    </g>
    <!-- 1&#45;&gt;4 -->
    <g
       id="edge15"
       class="edge">
      <title
         id="title1270">1-&gt;4</title>
      <path
         fill="none"
         stroke="black"
         d="M256.04,-602.89C256.87,-576.98 258.46,-526.61 259.72,-487.06"
         id="path1272" />
      <polygon
         fill="black"
         stroke="black"
         points="263.22,-487.11 260.04,-477 256.22,-486.89 263.22,-487.11"
         id="polygon1274" />
    </g>
    <!-- 3 -->
    <g
       id="node4"
       class="node">
      <title
         id="title1277">3</title>
      <polygon
         fill="none"
         stroke="black"
         points="59,-347 0,-347 0,-311 59,-311 59,-347"
         id="polygon1279" />
      <text
         text-anchor="start"
         x="12.5"
         y="-325.8"
         font-family="Times,serif"
         font-weight="bold"
         font-size="14.00"
         id="text1281">Unit</text>
    </g>
    <!-- 2&#45;&gt;3 -->
    <g
       id="edge17"
       class="edge">
      <title
         id="title1284">2-&gt;3</title>
      <path
         fill="none"
         stroke="black"
         d="M85.69,-382.98C75.06,-372.96 64.23,-362.75 54.95,-354"
         id="path1286" />
      <polygon
         fill="black"
         stroke="black"
         points="57.24,-351.34 47.56,-347.03 52.44,-356.44 57.24,-351.34"
         id="polygon1288" />
    </g>
    <!-- 6 -->
    <g
       id="node6"
       class="node">
      <title
         id="title1291">6</title>
      <polygon
         fill="none"
         stroke="black"
         points="192,-347 77,-347 77,-311 192,-311 192,-347"
         id="polygon1293" />
      <text
         text-anchor="start"
         x="89.5"
         y="-325.8"
         font-family="Times,serif"
         font-weight="bold"
         font-size="14.00"
         id="text1295">Integration</text>
    </g>
    <!-- 2&#45;&gt;6 -->
    <g
       id="edge18"
       class="edge">
      <title
         id="title1298">2-&gt;6</title>
      <path
         fill="none"
         stroke="black"
         d="M134.5,-382.98C134.5,-374.23 134.5,-365.34 134.5,-357.4"
         id="path1300" />
      <polygon
         fill="black"
         stroke="black"
         points="138,-357.27 134.5,-347.27 131,-357.27 138,-357.27"
         id="polygon1302" />
    </g>
    <!-- 7 -->
    <g
       id="node7"
       class="node">
      <title
         id="title1305">7</title>
      <polygon
         fill="none"
         stroke="black"
         points="321,-347 210,-347 210,-311 321,-311 321,-347"
         id="polygon1307" />
      <text
         text-anchor="start"
         x="222.5"
         y="-325.8"
         font-family="Times,serif"
         font-weight="bold"
         font-size="14.00"
         id="text1309">End to End</text>
    </g>
    <!-- 2&#45;&gt;7 -->
    <g
       id="edge16"
       class="edge">
      <title
         id="title1312">2-&gt;7</title>
      <path
         fill="none"
         stroke="black"
         d="M195.4,-382.98C209.05,-372.66 222.98,-362.13 234.78,-353.21"
         id="path1314" />
      <polygon
         fill="black"
         stroke="black"
         points="237.1,-355.85 242.97,-347.03 232.88,-350.27 237.1,-355.85"
         id="polygon1316" />
    </g>
    <!-- 9 -->
    <g
       id="node9"
       class="node">
      <title
         id="title1319">9</title>
      <polygon
         fill="none"
         stroke="black"
         points="484,-448 425,-448 425,-412 484,-412 484,-448"
         id="polygon1321" />
      <text
         text-anchor="start"
         x="437.5"
         y="-426.8"
         font-family="Times,serif"
         font-weight="bold"
         font-size="14.00"
         id="text1323">OOP</text>
    </g>
    <!-- 8&#45;&gt;9 -->
    <g
       id="edge4"
       class="edge">
      <title
         id="title1326">8-&gt;9</title>
      <path
         fill="none"
         stroke="black"
         d="M459.96,-602.89C458.91,-570.02 456.62,-497.76 455.36,-458.2"
         id="path1328" />
      <polygon
         fill="black"
         stroke="black"
         points="458.86,-458.09 455.05,-448.2 451.87,-458.31 458.86,-458.09"
         id="polygon1330" />
    </g>
    <!-- 10 -->
    <g
       id="node10"
       class="node">
      <title
         id="title1333">10</title>
      <polygon
         fill="none"
         stroke="black"
         points="598,-275 537,-275 537,-239 598,-239 598,-275"
         id="polygon1335" />
      <text
         text-anchor="start"
         x="549.5"
         y="-253.8"
         font-family="Times,serif"
         font-weight="bold"
         font-size="14.00"
         id="text1337">OOD</text>
    </g>
    <!-- 8&#45;&gt;10 -->
    <g
       id="edge5"
       class="edge">
      <title
         id="title1340">8-&gt;10</title>
      <path
         fill="none"
         stroke="black"
         d="M465.66,-602.54C482.89,-544.24 538.54,-355.98 559.45,-285.22"
         id="path1342" />
      <polygon
         fill="black"
         stroke="black"
         points="562.91,-285.87 562.39,-275.28 556.2,-283.88 562.91,-285.87"
         id="polygon1344" />
    </g>
    <!-- 13 -->
    <g
       id="node13"
       class="node">
      <title
         id="title1347">13</title>
      <polygon
         fill="none"
         stroke="black"
         points="407.5,-275 301.5,-275 301.5,-239 407.5,-239 407.5,-275"
         id="polygon1349" />
      <text
         text-anchor="start"
         x="313.5"
         y="-253.8"
         font-family="Times,serif"
         font-weight="bold"
         font-size="14.00"
         id="text1351">Interfaces</text>
    </g>
    <!-- 9&#45;&gt;13 -->
    <g
       id="edge2"
       class="edge">
      <title
         id="title1354">9-&gt;13</title>
      <path
         fill="none"
         stroke="black"
         d="M443.49,-411.89C432.97,-395.41 416.8,-369.71 403.5,-347 391.32,-326.2 378.17,-302.24 368.57,-284.42"
         id="path1356" />
      <polygon
         fill="black"
         stroke="black"
         points="371.44,-282.37 363.63,-275.21 365.27,-285.68 371.44,-282.37"
         id="polygon1358" />
    </g>
    <!-- 18 -->
    <g
       id="node14"
       class="node">
      <title
         id="title1361">18</title>
      <polygon
         fill="none"
         stroke="black"
         points="496.5,-347 412.5,-347 412.5,-311 496.5,-311 496.5,-347"
         id="polygon1363" />
      <text
         text-anchor="start"
         x="424.5"
         y="-325.8"
         font-family="Times,serif"
         font-weight="bold"
         font-size="14.00"
         id="text1365">Classes</text>
    </g>
    <!-- 9&#45;&gt;18 -->
    <g
       id="edge3"
       class="edge">
      <title
         id="title1368">9-&gt;18</title>
      <path
         fill="none"
         stroke="black"
         d="M454.5,-411.76C454.5,-396.71 454.5,-374.62 454.5,-357.19"
         id="path1370" />
      <polygon
         fill="black"
         stroke="black"
         points="458,-357.05 454.5,-347.05 451,-357.05 458,-357.05"
         id="polygon1372" />
    </g>
    <!-- 11 -->
    <g
       id="node11"
       class="node">
      <title
         id="title1375">11</title>
      <polygon
         fill="none"
         stroke="black"
         points="652.5,-203 382.5,-203 382.5,-151 652.5,-151 652.5,-203"
         id="polygon1377" />
      <text
         text-anchor="start"
         x="495.5"
         y="-184.8"
         font-family="Times,serif"
         font-weight="bold"
         font-size="14.00"
         id="text1379">Roles</text>
      <text
         text-anchor="start"
         x="394.5"
         y="-162.8"
         font-family="Times,serif"
         font-size="14.00"
         id="text1381">One object may have several roles</text>
    </g>
    <!-- 10&#45;&gt;11 -->
    <g
       id="edge1"
       class="edge">
      <title
         id="title1384">10-&gt;11</title>
      <path
         fill="none"
         stroke="black"
         d="M556.4,-238.69C551.35,-230.8 545.17,-221.17 539.25,-211.93"
         id="path1386" />
      <polygon
         fill="black"
         stroke="black"
         points="542.03,-209.79 533.69,-203.26 536.14,-213.56 542.03,-209.79"
         id="polygon1388" />
    </g>
    <!-- 12 -->
    <g
       id="node12"
       class="node">
      <title
         id="title1391">12</title>
      <polygon
         fill="none"
         stroke="black"
         points="558.5,-115 312.5,-115 312.5,0 558.5,0 558.5,-115"
         id="polygon1393" />
      <text
         text-anchor="start"
         x="372"
         y="-96.3"
         font-family="Times,serif"
         font-weight="bold"
         font-size="14.00"
         id="text1395">Responsibilities</text>
      <text
         text-anchor="start"
         x="324.5"
         y="-74.3"
         font-family="Times,serif"
         font-size="14.00"
         id="text1397">Things an object in a role must</text>
      <text
         text-anchor="start"
         x="416.5"
         y="-53.3"
         font-family="Times,serif"
         font-size="14.00"
         id="text1399">know</text>
      <text
         text-anchor="start"
         x="426.5"
         y="-32.3"
         font-family="Times,serif"
         font-size="14.00"
         id="text1401">do</text>
      <text
         text-anchor="start"
         x="412"
         y="-11.3"
         font-family="Times,serif"
         font-size="14.00"
         id="text1403">decide</text>
    </g>
    <!-- 11&#45;&gt;12 -->
    <g
       id="edge7"
       class="edge">
      <title
         id="title1406">11-&gt;12</title>
      <path
         fill="none"
         stroke="black"
         d="M499.91,-150.79C494.17,-142.57 487.52,-133.04 480.71,-123.28"
         id="path1408" />
      <polygon
         fill="black"
         stroke="black"
         points="483.56,-121.25 474.97,-115.05 477.82,-125.26 483.56,-121.25"
         id="polygon1410" />
    </g>
    <!-- 12&#45;&gt;13 -->
    <g
       id="edge6"
       class="edge">
      <title
         id="title1413">12-&gt;13</title>
      <path
         fill="none"
         stroke="black"
         d="M392.28,-115.17C385.12,-126.58 378.43,-138.81 373.5,-151 363.33,-176.12 358.58,-206.82 356.37,-228.51"
         id="path1415" />
      <polygon
         fill="black"
         stroke="black"
         points="352.87,-228.4 355.46,-238.67 359.84,-229.02 352.87,-228.4"
         id="polygon1417" />
    </g>
    <!-- 13&#45;&gt;11 -->
    <g
       id="edge13"
       class="edge">
      <title
         id="title1420">13-&gt;11</title>
      <path
         fill="none"
         stroke="black"
         d="M390.27,-238.88C409.54,-229.66 433.86,-218.02 456.06,-207.4"
         id="path1422" />
      <polygon
         fill="black"
         stroke="black"
         points="457.59,-210.55 465.1,-203.07 454.57,-204.23 457.59,-210.55"
         id="polygon1424" />
    </g>
    <!-- 18&#45;&gt;13 -->
    <g
       id="edge8"
       class="edge">
      <title
         id="title1427">18-&gt;13</title>
      <path
         fill="none"
         stroke="black"
         d="M430.04,-310.88C417.2,-301.89 401.3,-290.76 387.41,-281.03"
         id="path1429" />
      <polygon
         fill="black"
         stroke="black"
         points="389.26,-278.06 379.06,-275.19 385.24,-283.79 389.26,-278.06"
         id="polygon1431" />
    </g>
    <!-- 19 -->
    <g
       id="node15"
       class="node">
      <title
         id="title1434">19</title>
      <polygon
         fill="none"
         stroke="black"
         points="519,-275 426,-275 426,-239 519,-239 519,-275"
         id="polygon1436" />
      <text
         text-anchor="start"
         x="438.5"
         y="-253.8"
         font-family="Times,serif"
         font-weight="bold"
         font-size="14.00"
         id="text1438">methods</text>
    </g>
    <!-- 18&#45;&gt;19 -->
    <g
       id="edge9"
       class="edge">
      <title
         id="title1441">18-&gt;19</title>
      <path
         fill="none"
         stroke="black"
         d="M458.95,-310.7C460.95,-302.9 463.37,-293.51 465.6,-284.83"
         id="path1443" />
      <polygon
         fill="black"
         stroke="black"
         points="469,-285.66 468.1,-275.1 462.22,-283.92 469,-285.66"
         id="polygon1445" />
    </g>
  </g>
</svg>
